# xmcd CD database file
#
# Track frame offsets:
#	187
#	16767
#	43627
#	70470
#	92832
#	125670
#	135492
#	161940
#
# Disc length: 2344 seconds
#
# Revision: 0
# Processed by: cddbd v1.5.1PL2 Copyright (c) Steve Scherf et al.
# Submitted via: CDex 1.51
#
DISCID=6c092608
DTITLE=Marion Brown - Sweet Earth Flying
DYEAR=1974
DGENRE=Jazz
TTITLE0=Sweet Earth Flying Part, One
TTITLE1=Sweet Earth Flying Part, Three
TTITLE2=Sweet Earth Flying Part, Four
TTITLE3=Sweet Earth Flying Part, Five
TTITLE4=Eleven Light City, Part One
TTITLE5=Eleven Light City, Part Two
TTITLE6=Eleven Light City, Part Three
TTITLE7=Eleven Light City, Part Four
EXTD=YEAR: 1974
EXTT0=
EXTT1=
EXTT2=
EXTT3=
EXTT4=
EXTT5=
EXTT6=
EXTT7=
PLAYORDER=
